# xmcd CD database file
#
# Track frame offsets:
#	150
#	13253
#	31088
#	46271
#	62119
#	77427
#	97728
#	112599
#	128758
#	144174
#	159137
#	172244
#
# Disc length: 2463 seconds
#
# Revision: 0
# Processed by: cddbd v1.5.2PL0 Copyright (c) Steve Scherf et al.
# Submitted via: CDex 1.70beta2
#
DISCID=82099d0c
DTITLE=Old Merrytale Jazzband - Old Merrytale Jazzband meets Knut Kiesewetter
DYEAR=1976
DGENRE=Jazz
TTITLE0=Jelly Roll
TTITLE1=Misery And The Blues
TTITLE2=Limehouse Blues
TTITLE3=Sweet Lotus Blossom
TTITLE4=If I Had You
TTITLE5=Baby, Won't You Please Come Home
TTITLE6=Wochenend und Sonnenschein
TTITLE7=Meet Me Where They Play The Blues
TTITLE8=Ory's Creole Trombone
TTITLE9=Do You Know What It Means
TTITLE10=I'm Gonna Sit Right Down
TTITLE11=Queen Of Palästina
EXTD=YEAR: 1976
EXTT0=
EXTT1=
EXTT2=
EXTT3=
EXTT4=
EXTT5=
EXTT6=
EXTT7=
EXTT8=
EXTT9=
EXTT10=
EXTT11=
PLAYORDER=
